# xmcd CD database file
#
# Track frame offsets:
#	150
#	13289
#	31679
#	32287
#	49471
#	61841
#	80296
#	93546
#	108581
#	124751
#	141610
#	162849
#
# Disc length: 2295 seconds
#
# Revision: 0
# Processed by: cddbd v1.5.1PL2 Copyright (c) Steve Scherf et al.
# Submitted via: ACXtractor (MTCDDB.DLL V2003.12.21)
#
DISCID=9c08f50c
DTITLE=Mojo Gurus - Shakin' In The Barn
DYEAR=2005
DGENRE=Blues
TTITLE0=Wild, Wild Women
TTITLE1=You'd Have To Tie Me Up (To Tie Me Down)
TTITLE2=Coffee Honey?
TTITLE3=White Line Fever
TTITLE4=Baddest Mother's Son
TTITLE5=Race With The Devil
TTITLE6=Linda Marie
TTITLE7=Black Cat Blues
TTITLE8=Fools' Hall Of Fame
TTITLE9=Shakin' In The Barn
TTITLE10=Who's Been Drivin' My Cadillac?
TTITLE11=Two Too Much
EXTD=ID3G:   0 YEAR: 2005
EXTT0=
EXTT1=
EXTT2=
EXTT3=
EXTT4=
EXTT5=
EXTT6=
EXTT7=
EXTT8=
EXTT9=
EXTT10=
EXTT11=
PLAYORDER=
